<svg width="134" height="34" viewBox="0 0 134 34" fill="none" xmlns="http://www.w3.org/2000/svg">
    <path d="M13.0505 0V8.52752H26.091V34H34.7946V10.6594V8.99794V0H13.0505Z" fill="black"/>
    <path d="M0 0V25.5826L8.60348 34H21.7541V25.5826H8.69363V0H0Z" fill="black"/>
    <path d="M47.3342 0.770752C48.1955 0.770752 50.2387 0.96092 51.4006 1.18111V2.14196C51.3805 2.14196 48.8566 1.98182 47.3342 1.98182C45.2509 1.98182 44.4998 2.91264 44.4998 6.87614C44.4998 9.53849 45.1007 11.7504 47.3342 11.7504C49.0669 11.7504 51.4006 11.6303 51.4006 11.6303V12.5912C50.2387 12.8014 48.1955 12.9515 47.3342 12.9515C44.2494 12.9515 43.2678 10.3492 43.2678 6.84611C43.2678 3.01273 44.019 0.770752 47.3342 0.770752Z" fill="black"/>
    <path d="M58.4416 8.89776H55.2466V11.7002H58.4416C58.9724 11.7002 59.6835 11.5601 59.6835 10.339C59.6835 9.55834 59.323 8.89776 58.4416 8.89776ZM58.4216 5.35463H55.2466V7.76676H58.4216C59.1928 7.76676 59.6134 7.37641 59.6134 6.53567C59.6134 5.56481 58.9724 5.35463 58.4216 5.35463ZM60.8353 6.50564C60.8353 7.30635 60.5849 8.06702 59.8338 8.3873C60.3946 8.59749 60.9054 9.24806 60.9054 10.4091C60.9054 11.7102 60.3345 12.8713 58.4616 12.8713H54.0247V4.20361H58.4616C60.2444 4.20361 60.8353 5.45472 60.8353 6.50564Z" fill="black"/>
    <path d="M67.8164 7.96692C68.5476 7.96692 68.8681 7.70669 68.8681 7.16622C68.8681 5.43469 68.5275 5.28456 66.7247 5.28456C64.8618 5.28456 64.0906 5.30457 64.0906 7.9469L67.8164 7.96692ZM66.7147 4.0835C68.7979 4.0835 70.09 4.27366 70.09 7.16622C70.09 8.41732 69.4089 9.14796 67.8164 9.14796H64.0906C64.0906 11.1898 64.4812 11.6902 65.7732 11.6902C67.3056 11.6902 68.6778 11.7002 69.9197 11.5301V12.4409C68.5776 12.8212 67.1454 12.9013 65.7732 12.9013C63.5297 12.9013 62.8687 11.8403 62.8687 8.45736C62.8687 4.58394 64.0004 4.0835 66.7147 4.0835Z" fill="black"/>
    <path d="M74.1763 12.8512V5.37465H71.6824V4.20361H77.9622V5.37465H75.4082V12.8512H74.1763Z" fill="black"/>
    <path d="M83.1803 11.7503C84.9931 11.7503 85.8645 11.5201 85.8645 8.67755C85.8645 5.57482 85.1534 5.34461 83.1803 5.34461C81.3274 5.34461 80.5161 5.57482 80.5161 8.67755C80.5161 11.5401 81.4676 11.7503 83.1803 11.7503ZM83.1803 4.12354C86.165 4.12354 87.0964 5.23452 87.0964 8.66754C87.0964 11.8704 86.185 12.9513 83.1803 12.9513C80.2156 12.9513 79.2942 11.7603 79.2942 8.66754C79.2942 5.11441 80.2857 4.12354 83.1803 4.12354Z" fill="black"/>
    <path d="M93.5866 8.89776H90.3916V11.7002H93.5866C94.1174 11.7002 94.8285 11.5601 94.8285 10.339C94.8285 9.55834 94.468 8.89776 93.5866 8.89776ZM93.5666 5.35463H90.3916V7.76676H93.5666C94.3478 7.76676 94.7685 7.37641 94.7685 6.53567C94.7785 5.56481 94.1174 5.35463 93.5666 5.35463ZM95.9804 6.50564C95.9804 7.30635 95.73 8.06702 94.9888 8.3873C95.5497 8.59749 96.0605 9.24806 96.0605 10.4091C96.0605 11.7102 95.4896 12.8713 93.6166 12.8713H89.1697V4.20361H93.6166C95.3994 4.20361 95.9804 5.45472 95.9804 6.50564Z" fill="black"/>
    <path d="M107.168 12.8512H105.936V4.20361H107.168V12.8512ZM103.062 10.1288C103.062 9.35816 102.891 9.00785 101.94 9.00785H99.6362V11.6502H101.79C102.781 11.6502 103.062 11.1097 103.062 10.349V10.1288ZM104.294 10.0488V10.339C104.294 11.3099 103.983 12.8412 101.8 12.8412H98.4143V4.20361H99.6462V7.80679H102.15C103.532 7.80679 104.294 8.69758 104.294 10.0488Z" fill="black"/>
    <path d="M114.329 7.96692C115.07 7.96692 115.391 7.70669 115.391 7.16622C115.391 5.43469 115.06 5.28456 113.257 5.28456C111.384 5.28456 110.613 5.30457 110.613 7.9469L114.329 7.96692ZM113.247 4.0835C115.321 4.0835 116.623 4.27366 116.623 7.16622C116.623 8.41732 115.942 9.14796 114.349 9.14796H110.613C110.613 11.1898 111.004 11.6902 112.296 11.6902C113.828 11.6902 115.21 11.7002 116.452 11.5301V12.4409C115.11 12.8212 113.678 12.9013 112.296 12.9013C110.052 12.9013 109.381 11.8403 109.381 8.45736C109.391 4.58394 110.523 4.0835 113.247 4.0835Z" fill="black"/>
    <path d="M50.6394 23.6609V33.5296H49.4074V23.6609C49.4074 22.8002 48.8566 22.8202 48.3758 22.8202H43.2878V21.6091H48.3758C49.4775 21.6091 50.6394 21.8093 50.6394 23.6609Z" fill="black"/>
    <path d="M58.2012 28.6354C58.9324 28.6354 59.2529 28.3752 59.2529 27.8347C59.2529 26.1031 58.9224 25.953 57.1296 25.953C55.2566 25.953 54.4854 25.973 54.4854 28.6254L58.2012 28.6354ZM57.0995 24.762C59.1728 24.762 60.4748 24.9521 60.4748 27.8447C60.4748 29.0958 59.7837 29.8264 58.2012 29.8264H54.4754C54.4754 31.8682 54.856 32.3687 56.158 32.3687C57.6904 32.3687 59.0726 32.3787 60.3146 32.2085V33.1193C58.9624 33.4997 57.5402 33.5797 56.158 33.5797C53.9145 33.5797 53.2435 32.5188 53.2435 29.1358C53.2335 25.2524 54.3652 24.762 57.0995 24.762Z" fill="black"/>
    <path d="M65.4826 29.1956L62.2776 24.8818H63.8L66.2138 28.2048L68.6676 24.8818H70.2L66.975 29.2457L70.0698 33.5295H68.6676L66.2438 30.2366L63.8 33.5295H62.2776L65.4826 29.1956Z" fill="black"/>
    <path d="M77.4114 24.8818H78.6433V33.5195H77.4114V29.8362H73.7456V33.5195H72.5037V24.8818H73.7456V28.6351H77.4114V24.8818Z" fill="black"/>
    <path d="M84.8729 32.4187C86.6858 32.4187 87.5471 32.1885 87.5471 29.336C87.5471 26.2433 86.826 26.0031 84.8729 26.0031C83.01 26.0031 82.2087 26.2333 82.2087 29.336C82.2087 32.2185 83.1602 32.4187 84.8729 32.4187ZM84.8729 24.792C87.8576 24.792 88.779 25.903 88.779 29.336C88.7891 32.5488 87.8776 33.6198 84.8729 33.6198C81.8983 33.6198 80.9768 32.4287 80.9768 29.336C80.9768 25.7829 81.9784 24.792 84.8729 24.792Z" fill="black"/>
    <path d="M91.9241 24.8818H97.603V33.5195H96.371V26.0729H93.126V31.3676C93.126 33.029 92.4749 33.6296 91.4834 33.6296H90.2815L90.2915 32.7688H90.3316C90.3716 32.7688 90.602 32.7187 90.8524 32.6487C91.0827 32.5886 91.2931 32.5186 91.2931 32.5186C91.6236 32.4385 91.884 32.2583 91.884 31.3175V24.8818H91.9241Z" fill="black"/>
    <path d="M103.883 32.4187C105.696 32.4187 106.557 32.1885 106.557 29.336C106.557 26.2433 105.836 26.0031 103.883 26.0031C102.02 26.0031 101.219 26.2333 101.219 29.336C101.219 32.2185 102.16 32.4187 103.883 32.4187ZM103.883 24.792C106.867 24.792 107.779 25.903 107.779 29.336C107.779 32.5488 106.867 33.6198 103.883 33.6198C100.908 33.6198 99.9766 32.4287 99.9766 29.336C99.9766 25.7829 100.978 24.792 103.883 24.792Z" fill="black"/>
    <path d="M112.366 24.8818H115.301V26.0829H112.366C111.865 26.0829 111.324 26.0629 111.324 26.9336V33.5295H110.093V26.9336C110.093 25.082 111.254 24.8818 112.366 24.8818Z" fill="black"/>
    <path d="M118.947 31.1874L123.193 24.8718H124.335V33.5195H123.093V27.2139L118.866 33.5195H117.735V24.8818H118.947V31.1874Z" fill="black"/>
    <path d="M128.622 31.1874L132.858 24.8718H134V33.5195H132.768V27.2139L128.531 33.5195H127.4V24.8818H128.622V31.1874Z" fill="black"/>
</svg>
