<svg width="28" height="14" viewBox="0 0 28 14" fill="none" xmlns="http://www.w3.org/2000/svg">
    <path d="M0.84 13.6H2.12C2.24 13.6 2.32 13.52 2.32 13.4V8.88H2.34C2.8 9.64 3.62 10.22 5.06 10.22C6.72 10.22 7.86 9.44 8.36 7.92C8.62 7.16 8.7 6.4 8.7 5.2C8.7 4.02 8.62 3.26 8.36 2.5C7.86 0.979999 6.72 0.2 5.06 0.2C3.62 0.2 2.8 0.76 2.34 1.52H2.32V0.62C2.32 0.5 2.24 0.419999 2.12 0.419999H0.84C0.72 0.419999 0.64 0.5 0.64 0.62V13.4C0.64 13.52 0.72 13.6 0.84 13.6ZM4.66 8.66C3.6 8.66 2.86 8.16 2.54 7.2C2.38 6.74 2.32 6.16 2.32 5.2C2.32 4.24 2.38 3.68 2.54 3.2C2.86 2.24 3.6 1.76 4.66 1.76C5.72 1.76 6.44 2.26 6.76 3.2C6.92 3.72 6.98 4.34 6.98 5.2C6.98 6.08 6.92 6.7 6.76 7.2C6.44 8.14 5.72 8.66 4.66 8.66ZM11.2864 13.6H11.8064C13.2464 13.6 13.9864 13 14.8264 10.74L18.6064 0.62C18.6464 0.5 18.5664 0.419999 18.4464 0.419999H17.0864C16.9664 0.419999 16.8864 0.48 16.8464 0.62L14.4264 7.54H14.3864L11.8664 0.62C11.8264 0.48 11.7464 0.419999 11.6264 0.419999H10.2264C10.0864 0.419999 10.0264 0.5 10.0664 0.62L13.5864 9.72L13.2664 10.6C12.8464 11.7 12.4264 12.04 11.6464 12.04H11.2864C11.1664 12.04 11.0864 12.12 11.0864 12.24V13.4C11.0864 13.52 11.1664 13.6 11.2864 13.6ZM24.0423 10.22C25.5023 10.22 26.6223 9.6 27.3223 8.6C27.3823 8.5 27.3823 8.42 27.2623 8.32L26.3823 7.6C26.2823 7.52 26.1823 7.52 26.1023 7.62C25.5423 8.32 25.0023 8.66 24.0423 8.66C23.0023 8.66 22.2223 8.16 21.9023 7.16C21.7423 6.66 21.6823 6.06 21.6823 5.2C21.6823 4.36 21.7423 3.76 21.9023 3.26C22.2223 2.26 23.0023 1.76 24.0423 1.76C25.0023 1.76 25.5423 2.1 26.1023 2.8C26.1823 2.9 26.2823 2.9 26.3823 2.82L27.2623 2.1C27.3823 2 27.3823 1.92 27.3223 1.82C26.6223 0.82 25.5023 0.2 24.0423 0.2C22.2023 0.2 20.8023 1.12 20.2623 2.78C20.0823 3.36 19.9623 4.14 19.9623 5.2C19.9623 6.28 20.0823 7.06 20.2623 7.64C20.8023 9.3 22.2023 10.22 24.0423 10.22Z" fill="black"/>
</svg>
