<svg width="19" height="18" viewBox="0 0 19 18" fill="none" xmlns="http://www.w3.org/2000/svg">
<path fill-rule="evenodd" clip-rule="evenodd" d="M5.22486 0C2.34925 0 0 2.25121 0 5.05179C0 5.81081 0.0496173 6.79455 0.494019 7.9522C0.936936 9.10599 1.74885 10.3747 3.18953 11.7648L9.50029 18L15.8105 11.7648C17.2512 10.3746 18.0631 9.10599 18.506 7.9522C18.9504 6.79455 19 5.81081 19 5.05179C19 2.25121 16.6508 0 13.7751 0C12.0123 0 10.4473 0.846026 9.5 2.146C8.55274 0.846026 6.98771 0 5.22486 0ZM8.55027 6.14354L8.54967 5.05179C8.54967 3.29576 7.07198 1.85465 5.22486 1.85465C3.37775 1.85465 1.90006 3.29576 1.90006 5.05179C1.90006 5.71119 1.94338 6.44206 2.27327 7.30144C2.60423 8.16357 3.24684 9.21303 4.52904 10.4494L4.53725 10.4574L9.50023 15.361L14.4709 10.4494C15.7531 9.21299 16.3958 8.16357 16.7267 7.30144C17.0566 6.44206 17.0999 5.71119 17.0999 5.05179C17.0999 3.29576 15.6223 1.85465 13.7751 1.85465C11.928 1.85465 10.4503 3.29576 10.4503 5.05179V6.14354H8.55027Z" fill="black"/>
</svg>
